<?xml version="1.0" encoding="utf-8"?>
<!-- Generator: Adobe Illustrator 19.0.0, SVG Export Plug-In . SVG Version: 6.00 Build 0)  -->
<svg version="1.1" id="Layer_1" xmlns="http://www.w3.org/2000/svg" xmlns:xlink="http://www.w3.org/1999/xlink" x="0px" y="0px"
	 viewBox="0 0 31.3 31.3" style="enable-background:new 0 0 31.3 31.3;" xml:space="preserve">
<style type="text/css">
	.st0{fill:none;}
	.st1{fill:#4C4C4C;}
</style>
<g id="XMLID_1_">
	<rect id="XMLID_391_" x="0" class="st0" width="31.3" height="31.3"/>
	<g id="XMLID_388_">
		<path id="XMLID_435_" class="st1" d="M5,6.5c0-0.1,0.1-0.3,0.1-0.4c0.4-1,1.3-1.6,2.5-1.6c1,0,1.8,0.4,2.2,1.4
			c0.7,1.5-0.3,3.2-2,3.3c-0.4,0-0.8,0-1.2-0.1C5.8,8.9,5.3,8.3,5,7.4C5,7.3,5,7.2,5,7.2C5,6.9,5,6.7,5,6.5z"/>
		<path id="XMLID_434_" class="st1" d="M12.4,24.9c0-4.6,0-9.2,0-13.7c1.5,0,3,0,4.6,0c0,0.6,0,1.2,0,1.8c0,0,0,0,0.1,0
			c0.1-0.2,0.3-0.4,0.4-0.6c0.8-0.9,1.8-1.5,3-1.6c1.4-0.1,2.6,0.1,3.8,0.9c1,0.8,1.6,1.8,1.9,3.1c0.1,0.7,0.2,1.5,0.3,2.2
			c0,2.5,0,5.1,0,7.6c0,0.1,0,0.1,0,0.2c-1.5,0-3,0-4.6,0c0-0.1,0-0.2,0-0.3c0-2.3,0-4.6,0-6.9c0-0.5-0.1-1-0.2-1.5
			c-0.2-0.9-0.7-1.5-1.7-1.7c-1-0.2-1.8,0.1-2.4,1c-0.4,0.5-0.5,1.1-0.5,1.7c0,2.5,0,5,0,7.4c0,0.1,0,0.2,0,0.3
			C15.4,24.9,13.9,24.9,12.4,24.9z"/>
		<path id="XMLID_433_" class="st1" d="M5.3,11.1c1.5,0,3,0,4.5,0c0,4.6,0,9.1,0,13.7c-1.5,0-3,0-4.5,0C5.3,20.3,5.3,15.7,5.3,11.1z
			"/>
	</g>
</g>
</svg>
