<?xml version="1.0" encoding="utf-8"?>
<!-- Generator: Adobe Illustrator 19.0.0, SVG Export Plug-In . SVG Version: 6.00 Build 0)  -->
<svg version="1.1" id="Layer_1" xmlns="http://www.w3.org/2000/svg" xmlns:xlink="http://www.w3.org/1999/xlink" x="0px" y="0px"
	 viewBox="0 0 31.3 31.3" style="enable-background:new 0 0 31.3 31.3;" xml:space="preserve">
<style type="text/css">
	.st0{fill:none;}
	.st1{fill:#4C4C4C;}
</style>
<g id="XMLID_1_">
	<rect id="XMLID_389_" x="0" class="st0" width="31.3" height="31.3"/>
	<g id="XMLID_946_">
		<g id="XMLID_923_">
			<path id="XMLID_2583_" class="st1" d="M4.4,24.7c0.1-0.1,0.1-0.1,0.2-0.2c0.7-0.9,1.3-1.8,2-2.6c0.4-0.5,0.6-1.1,0.6-1.7
				c0-1.9,0-3.8,0-5.7c0-1.5,0-3,0-4.5c0-0.5-0.2-0.9-0.4-1.3c-0.5-0.7-1-1.3-1.5-2C5.1,6.5,5,6.5,4.9,6.3c0.1,0,0.2,0,0.3,0
				c1.9,0,3.8,0,5.7,0c0.2,0,0.3,0.1,0.3,0.2c1.6,3.6,3.3,7.3,4.9,10.9c0,0.1,0.1,0.2,0.1,0.3c0.1-0.1,0.1-0.2,0.1-0.3
				c1.4-3.6,2.9-7.3,4.3-10.9c0.1-0.1,0.1-0.2,0.3-0.2c1.9,0,3.8,0,5.7,0c0,0,0.1,0,0.1,0c0,0,0,0.1-0.1,0.1
				c-0.6,0.6-1.1,1.3-1.7,1.9C25.1,8.5,25,8.7,25,8.9c0,4.5,0,9.1,0,13.6c0,0.2,0.1,0.4,0.2,0.5c0.5,0.5,1.1,1,1.6,1.6
				c0,0,0.1,0.1,0.1,0.2c-2.9,0-5.8,0-8.7,0c0.1-0.1,0.1-0.1,0.2-0.2c0.5-0.5,1-1,1.5-1.4c0.2-0.2,0.3-0.4,0.3-0.7
				c0-3.7,0-7.5,0-11.2c0-0.2,0-0.5,0-0.8c-0.1,0.1-0.1,0.2-0.1,0.2c-1.9,4.7-3.8,9.4-5.6,14.2c0,0.1,0,0.1-0.1,0.2c0,0-0.1,0-0.1,0
				c0,0,0,0,0-0.1c-2-4.6-4.1-9.1-6.1-13.7c0-0.1-0.1-0.1-0.1-0.2c0,0,0,0-0.1,0c0,0.1,0,0.2,0,0.3c0,2.7,0,5.4,0,8.1
				c0,0.2,0,0.3,0,0.5c0,0.7,0.1,1.3,0.6,1.9c0.7,0.9,1.4,1.8,2,2.7c0.1,0.1,0.1,0.1,0.2,0.3c-0.2,0-0.3,0-0.3,0c-1.9,0-3.7,0-5.6,0
				C4.7,24.8,4.6,24.8,4.4,24.7C4.4,24.8,4.4,24.7,4.4,24.7z"/>
		</g>
	</g>
</g>
</svg>
