<?xml version="1.0" encoding="utf-8"?>
<!-- Generator: Adobe Illustrator 19.0.0, SVG Export Plug-In . SVG Version: 6.00 Build 0)  -->
<svg version="1.1" id="Layer_1" xmlns="http://www.w3.org/2000/svg" xmlns:xlink="http://www.w3.org/1999/xlink" x="0px" y="0px"
	 viewBox="0 0 31.3 31.3" style="enable-background:new 0 0 31.3 31.3;" xml:space="preserve">
<style type="text/css">
	.st0{fill:none;}
	.st1{fill:#4C4C4C;}
</style>
<g id="XMLID_1_">
	<rect id="XMLID_392_" class="st0" width="31.3" height="31.3"/>
	<path id="XMLID_438_" class="st1" d="M14.2,19.4c-0.7,3.1-1.3,6.1-3.5,8.6c-0.1-0.3-0.1-0.4-0.1-0.6c-0.4-2.3-0.1-4.6,0.5-6.9
		c0.5-1.8,0.8-3.6,1.2-5.5c0-0.2,0-0.5-0.1-0.7c-0.4-1.3-0.5-2.5,0.1-3.7c0.2-0.5,0.5-0.9,0.9-1.3c0.6-0.5,1.3-0.7,2-0.4
		c0.7,0.3,1.1,1,1,1.7c0,0.8-0.2,1.7-0.4,2.5c-0.2,0.9-0.5,1.8-0.7,2.7c-0.2,0.9-0.1,1.7,0.6,2.3c0.7,0.6,1.5,0.7,2.3,0.4
		c0.7-0.3,1.3-0.8,1.7-1.4c0.9-1.3,1.3-2.8,1.5-4.3c0.1-1,0.1-1.9,0-2.9c-0.4-2.4-2.2-3.9-4.7-4.1c-5.2-0.4-7.8,4.1-7.1,7.8
		c0.1,0.6,0.4,1.1,0.7,1.7c0.2,0.3,0.3,0.6,0.2,0.9c-0.1,0.3-0.1,0.6-0.2,0.8c-0.1,0.6-0.4,0.7-0.9,0.4c-0.9-0.5-1.5-1.2-1.9-2.2
		C6.5,13.2,6.5,11.1,7.4,9c1.4-3.3,3.9-5.1,7.4-5.6c2.3-0.3,4.5,0,6.5,1.4c2.2,1.6,3.3,3.8,3.4,6.5c0,2.1-0.3,4-1.3,5.9
		c-1,1.9-2.5,3.3-4.7,3.7C16.9,21.3,15.4,20.9,14.2,19.4z"/>
</g>
</svg>
